<svg width="16" height="16" viewBox="0 0 16 16" fill="none" xmlns="http://www.w3.org/2000/svg">
<path d="M1.90625 2.375C1.12988 2.375 0.5 3.00488 0.5 3.78125C0.5 4.22363 0.708008 4.63965 1.0625 4.90625L7.4375 9.6875C7.77148 9.93652 8.22852 9.93652 8.5625 9.6875L14.9375 4.90625C15.292 4.63965 15.5 4.22363 15.5 3.78125C15.5 3.00488 14.8701 2.375 14.0938 2.375H1.90625ZM0.5 5.65625V11.75C0.5 12.7842 1.34082 13.625 2.375 13.625H13.625C14.6592 13.625 15.5 12.7842 15.5 11.75V5.65625L9.125 10.4375C8.45703 10.9385 7.54297 10.9385 6.875 10.4375L0.5 5.65625Z" fill="#D97026"/>
</svg>
