<svg width="28" height="28" viewBox="0 0 28 28" fill="none" xmlns="http://www.w3.org/2000/svg">
<g clip-path="url(#clip0_91_10)">
<path d="M2.06442 23.1834C2.18575 24.6738 3.32617 25.8142 4.81658 25.9356C6.69958 26.0884 9.70433 26.25 14 26.25C18.2957 26.25 21.3004 26.0884 23.1834 25.9356C24.6738 25.8142 25.8142 24.6738 25.9356 23.1834C26.0884 21.3004 26.25 18.2957 26.25 14C26.25 9.70433 26.0884 6.69958 25.9356 4.81658C25.8142 3.32617 24.6738 2.18575 23.1834 2.06442C21.3004 1.91158 18.2957 1.75 14 1.75C9.70433 1.75 6.69958 1.91158 4.81658 2.06442C3.32617 2.18575 2.18575 3.32617 2.06442 4.81658C1.91158 6.69958 1.75 9.70433 1.75 14C1.75 18.2957 1.91158 21.3004 2.06442 23.1834Z" stroke="#D97026" stroke-width="2" stroke-linecap="round" stroke-linejoin="round"/>
<path d="M17.2177 26.2174V17.5234H20.4487C20.9667 17.5234 21.4328 17.1821 21.5087 16.67C21.6107 15.951 21.6077 15.221 21.4999 14.5029C21.4252 14 20.9772 13.6687 20.4686 13.6687H17.2177C17.2177 10.7555 17.7024 10.332 20.4347 10.279C20.9592 10.2685 21.4293 9.92312 21.5057 9.40395C21.6341 8.53187 21.5827 7.76945 21.5022 7.23395C21.4282 6.73812 20.9842 6.41612 20.4837 6.4202C15.6543 6.4622 12.9039 7.03329 12.9039 13.6687H10.4026C9.91608 13.6687 9.48441 13.9732 9.41091 14.4539C9.33158 14.9719 9.28374 15.7226 9.41616 16.6355C9.49199 17.1629 9.96683 17.5234 10.5 17.5234H12.9039V26.2471" stroke="#D97026" stroke-width="2" stroke-linecap="round" stroke-linejoin="round"/>
</g>
<defs>
<clipPath id="clip0_91_10">
<rect width="28" height="28" fill="white"/>
</clipPath>
</defs>
</svg>
