<svg width="16" height="17" viewBox="0 0 16 17" fill="none" xmlns="http://www.w3.org/2000/svg">
<g clip-path="url(#clip0_106_2)">
<path d="M7.99999 0.930908C3.9409 0.930908 0.650024 4.22178 0.650024 8.28088C0.650024 12.34 3.9409 15.6309 7.99999 15.6309C12.0591 15.6309 15.35 12.34 15.35 8.28088C15.35 4.22178 12.0591 0.930908 7.99999 0.930908ZM11.3923 9.41166H7.99999C7.85006 9.41166 7.70627 9.35206 7.60021 9.2461C7.49421 9.14006 7.43462 8.99622 7.43462 8.84628V3.75785C7.43462 3.60788 7.49421 3.4641 7.60021 3.35803C7.70627 3.25203 7.85006 3.19244 7.99999 3.19244C8.14996 3.19244 8.29377 3.25203 8.39981 3.35803C8.50581 3.4641 8.5654 3.60788 8.5654 3.75785V8.28088H11.3923C11.5422 8.28088 11.6861 8.34047 11.7921 8.44647C11.8981 8.55253 11.9577 8.69635 11.9577 8.84628C11.9577 8.99622 11.8981 9.14006 11.7921 9.2461C11.6861 9.35206 11.5422 9.41166 11.3923 9.41166Z" fill="#D97026"/>
</g>
<defs>
<clipPath id="clip0_106_2">
<rect width="16" height="16" fill="white" transform="translate(0 0.281006)"/>
</clipPath>
</defs>
</svg>
