<svg width="28" height="28" viewBox="0 0 28 28" fill="none" xmlns="http://www.w3.org/2000/svg">
<path d="M20.8685 5.58792C20.5634 5.58792 20.2649 5.67837 20.011 5.84801C19.7573 6.01765 19.5594 6.25872 19.4425 6.54069C19.3257 6.82276 19.2953 7.13306 19.3548 7.43253C19.4144 7.73189 19.5613 8.00697 19.7772 8.22276C19.993 8.43867 20.2681 8.58567 20.5674 8.64517C20.8669 8.70478 21.1772 8.67426 21.4593 8.55734C21.7414 8.44053 21.9823 8.24267 22.1519 7.98892C22.3215 7.73506 22.412 7.43669 22.412 7.13142C22.412 6.72203 22.2495 6.32937 21.96 6.03997C21.6706 5.75045 21.278 5.58792 20.8685 5.58792ZM26.7853 8.70062C26.7604 7.63345 26.5605 6.57754 26.1937 5.57501C25.8665 4.71729 25.3576 3.94051 24.7016 3.29837C24.0647 2.63906 23.2863 2.1332 22.4249 1.81919C21.4252 1.44119 20.3679 1.23676 19.2993 1.21467C17.936 1.13745 17.4986 1.13745 14 1.13745C10.5014 1.13745 10.064 1.13745 8.70068 1.21467C7.63198 1.23676 6.57498 1.44119 5.57507 1.81919C4.7155 2.13637 3.93762 2.64179 3.29843 3.29837C2.63912 3.93526 2.13326 4.71379 1.81925 5.57501C1.44125 6.57492 1.23682 7.63192 1.21473 8.70062C1.13751 10.064 1.13751 10.5014 1.13751 14C1.13751 17.4985 1.13751 17.9359 1.21473 19.2993C1.23682 20.3679 1.44125 21.4251 1.81925 22.4249C2.13326 23.2862 2.63912 24.0646 3.29843 24.7015C3.93762 25.3581 4.7155 25.8635 5.57507 26.1807C6.57498 26.5586 7.63198 26.7631 8.70068 26.7852C10.064 26.8625 10.5014 26.8625 14 26.8625C17.4986 26.8625 17.936 26.8625 19.2993 26.7852C20.3679 26.7631 21.4252 26.5586 22.4249 26.1807C23.2863 25.8666 24.0647 25.3608 24.7016 24.7015C25.3605 24.0618 25.8699 23.2844 26.1937 22.4249C26.5605 21.4224 26.7604 20.3666 26.7853 19.2993C26.7853 17.9359 26.8625 17.4985 26.8625 14C26.8625 10.5014 26.8625 10.064 26.7853 8.70062ZM24.47 19.145C24.4607 19.9614 24.3129 20.7704 24.0328 21.5374C23.8274 22.0972 23.4976 22.603 23.0681 23.0166C22.6508 23.4416 22.146 23.7709 21.5889 23.9813C20.822 24.2614 20.013 24.4092 19.1964 24.4186C17.9102 24.4829 17.4343 24.4958 14.0514 24.4958C10.6686 24.4958 10.1927 24.4958 8.90642 24.4186C8.05865 24.4344 7.2145 24.304 6.41114 24.0327C5.87837 23.8117 5.39679 23.4832 4.99626 23.068C4.56937 22.6548 4.24354 22.1486 4.04448 21.5888C3.73036 20.811 3.55623 19.9834 3.52998 19.145C3.52998 17.8587 3.45276 17.3828 3.45276 14C3.45276 10.6171 3.45276 10.1412 3.52998 8.85495C3.53567 8.02031 3.68803 7.19311 3.98017 6.41108C4.20657 5.86814 4.55417 5.38426 4.99626 4.9962C5.38706 4.554 5.86995 4.20269 6.41114 3.9672C7.19514 3.68425 8.02146 3.53637 8.85501 3.52992C10.1413 3.52992 10.6172 3.4527 14 3.4527C17.3829 3.4527 17.8588 3.4527 19.145 3.52992C19.9615 3.53922 20.7704 3.68709 21.5375 3.9672C22.1219 4.18409 22.6465 4.53683 23.0681 4.9962C23.4896 5.39126 23.819 5.87437 24.0328 6.41108C24.3187 7.19431 24.4667 8.02118 24.47 8.85495C24.5344 10.1412 24.5473 10.6171 24.5473 14C24.5473 17.3828 24.5344 17.8587 24.47 19.145ZM14 7.40147C12.6955 7.40409 11.4211 7.79325 10.3376 8.51983C9.25423 9.2464 8.41051 10.2778 7.91296 11.4838C7.41553 12.6896 7.28668 14.016 7.54273 15.2951C7.79889 16.5742 8.42834 17.7488 9.35157 18.6704C10.2749 19.5919 11.4507 20.219 12.7304 20.4725C14.01 20.7262 15.336 20.5947 16.541 20.0949C17.746 19.5951 18.7758 18.7493 19.5002 17.6645C20.2248 16.5797 20.6114 15.3045 20.6114 14C20.613 13.1318 20.4431 12.272 20.1112 11.4699C19.7795 10.6677 19.2925 9.93908 18.678 9.32581C18.0635 8.71254 17.3339 8.22692 16.5312 7.89661C15.7282 7.5664 14.8681 7.39808 14 7.40147ZM14 18.2832C13.1529 18.2832 12.3248 18.032 11.6205 17.5613C10.9161 17.0907 10.367 16.4217 10.0428 15.639C9.71864 14.8565 9.63387 13.9952 9.79914 13.1643C9.9644 12.3335 10.3723 11.5702 10.9713 10.9712C11.5702 10.3723 12.3336 9.96434 13.1644 9.79908C13.9953 9.63381 14.8565 9.71858 15.6391 10.0428C16.4218 10.367 17.0907 10.916 17.5614 11.6204C18.032 12.3248 18.2832 13.1528 18.2832 14C18.2832 14.5625 18.1724 15.1194 17.9572 15.639C17.7419 16.1588 17.4264 16.6309 17.0287 17.0287C16.6309 17.4265 16.1589 17.7419 15.6391 17.9571C15.1195 18.1724 14.5625 18.2832 14 18.2832Z" fill="#D97026"/>
</svg>
