<svg width="16" height="17" viewBox="0 0 16 17" fill="none" xmlns="http://www.w3.org/2000/svg">
<g clip-path="url(#clip0_103_8)">
<path d="M8.68223 15.3006C10.1589 13.4526 13.5268 8.97356 13.5268 6.45771C13.5268 3.40645 11.0513 0.930908 8.00001 0.930908C4.94876 0.930908 2.47321 3.40645 2.47321 6.45771C2.47321 8.97356 5.8411 13.4526 7.3178 15.3006C7.67186 15.741 8.32816 15.741 8.68223 15.3006ZM8.00001 4.61544C9.41819 4.61544 10.3045 6.15067 9.59546 7.37885C9.26636 7.94887 8.65822 8.30001 8.00001 8.29998C6.58183 8.30004 5.69548 6.76486 6.40452 5.53665C6.7336 4.96661 7.3418 4.61544 8.00001 4.61544Z" fill="#D97026"/>
</g>
<defs>
<clipPath id="clip0_103_8">
<rect width="16" height="16" fill="white" transform="translate(0 0.281006)"/>
</clipPath>
</defs>
</svg>
