<svg width="16" height="16" viewBox="0 0 16 16" fill="none" xmlns="http://www.w3.org/2000/svg">
<g clip-path="url(#clip0_102_4)">
<path d="M5.33105 1.22063C5.10547 0.675709 4.51074 0.38567 3.94238 0.540944L1.36426 1.24407C0.854492 1.38469 0.5 1.84758 0.5 2.37493C0.5 9.62298 6.37695 15.4999 13.625 15.4999C14.1523 15.4999 14.6152 15.1454 14.7559 14.6357L15.459 12.0575C15.6143 11.4892 15.3242 10.8945 14.7793 10.6689L11.9668 9.497C11.4893 9.29778 10.9355 9.43548 10.6104 9.83684L9.42676 11.2812C7.36426 10.3056 5.69434 8.63567 4.71875 6.57317L6.16309 5.39251C6.56445 5.06438 6.70215 4.5136 6.50293 4.03606L5.33105 1.22356V1.22063Z" fill="#D97026"/>
</g>
<defs>
<clipPath id="clip0_102_4">
<rect width="16" height="16" fill="white"/>
</clipPath>
</defs>
</svg>
